<svg id="ad" width="400" height="400" _vimium-has-onclick-listener="">
      <g id="meshAContainer">
        <rect x="0" y="0" width="400" height="400" fill="#efefef"></rect>
      <g transform="matrix(1,0,0,1,-20,-20)"><polygon points="448.3892364501953,393.3386535644531 390.9381408691406,435.8182830810547 440.67169189453125,435.7785949707031" style="fill:#c7c7c7;stroke:#c7c7c7;"></polygon><polygon points="404.2629699707031,395.56951904296875 390.9381408691406,435.8182830810547 448.3892364501953,393.3386535644531" style="fill:#b8b8b8;stroke:#b8b8b8;"></polygon><polygon points="444.932861328125,353.6431427001953 404.2629699707031,395.56951904296875 448.3892364501953,393.3386535644531" style="fill:#b5b5b5;stroke:#b5b5b5;"></polygon><polygon points="399.5272521972656,356.3452606201172 404.2629699707031,395.56951904296875 444.932861328125,353.6431427001953" style="fill:#d6d6d6;stroke:#d6d6d6;"></polygon><polygon points="445.2357482910156,305.2054138183594 399.5272521972656,356.3452606201172 444.932861328125,353.6431427001953" style="fill:#e3e3e3;stroke:#e3e3e3;"></polygon><polygon points="393.4839324951172,312.236572265625 399.5272521972656,356.3452606201172 445.2357482910156,305.2054138183594" style="fill:#e1e1e1;stroke:#e1e1e1;"></polygon><polygon points="434.38475036621094,259.7570381164551 393.4839324951172,312.236572265625 445.2357482910156,305.2054138183594" style="fill:#c2c2c2;stroke:#c2c2c2;"></polygon><polygon points="387.2819061279297,265.84276580810547 393.4839324951172,312.236572265625 434.38475036621094,259.7570381164551" style="fill:#dfdfdf;stroke:#dfdfdf;"></polygon><polygon points="445.6096496582031,221.89234137535095 387.2819061279297,265.84276580810547 434.38475036621094,259.7570381164551" style="fill:#e9e9e9;stroke:#e9e9e9;"></polygon><polygon points="388.78515625,217.8840172290802 387.2819061279297,265.84276580810547 445.6096496582031,221.89234137535095" style="fill:#e0e0e0;stroke:#e0e0e0;"></polygon><polygon points="431.79017639160156,178.03642654418945 388.78515625,217.8840172290802 445.6096496582031,221.89234137535095" style="fill:#e8e8e8;stroke:#e8e8e8;"></polygon><polygon points="395.2109375,180.11519241333008 388.78515625,217.8840172290802 431.79017639160156,178.03642654418945" style="fill:#f1f1f1;stroke:#f1f1f1;"></polygon><polygon points="438.9076385498047,136.37571716308594 395.2109375,180.11519241333008 431.79017639160156,178.03642654418945" style="fill:#f5f5f5;stroke:#f5f5f5;"></polygon><polygon points="389.2039031982422,135.85739135742188 395.2109375,180.11519241333008 438.9076385498047,136.37571716308594" style="fill:#d5d5d5;stroke:#d5d5d5;"></polygon><polygon points="442.92262268066406,87.34394836425781 389.2039031982422,135.85739135742188 438.9076385498047,136.37571716308594" style="fill:#dfdfdf;stroke:#dfdfdf;"></polygon><polygon points="402.33978271484375,85.31069946289062 389.2039031982422,135.85739135742188 442.92262268066406,87.34394836425781" style="fill:#e3e3e3;stroke:#e3e3e3;"></polygon><polygon points="440.3360595703125,42.270599365234375 402.33978271484375,85.31069946289062 442.92262268066406,87.34394836425781" style="fill:#dddddd;stroke:#dddddd;"></polygon><polygon points="389.1581726074219,46.857879638671875 402.33978271484375,85.31069946289062 440.3360595703125,42.270599365234375" style="fill:#ffffff;stroke:#ffffff;"></polygon><polygon points="440.24871826171875,0.498870849609375 389.1581726074219,46.857879638671875 440.3360595703125,42.270599365234375" style="fill:#fefefe;stroke:#fefefe;"></polygon><polygon points="388.51612854003906,-2.186920166015625 389.1581726074219,46.857879638671875 440.24871826171875,0.498870849609375" style="fill:#e7e7e7;stroke:#e7e7e7;"></polygon><polygon points="404.2629699707031,395.56951904296875 357.7254333496094,435.9350128173828 390.9381408691406,435.8182830810547" style="fill:#bebebe;stroke:#bebebe;"></polygon><polygon points="357.2687072753906,395.01629638671875 357.7254333496094,435.9350128173828 404.2629699707031,395.56951904296875" style="fill:#cbcbcb;stroke:#cbcbcb;"></polygon><polygon points="399.5272521972656,356.3452606201172 357.2687072753906,395.01629638671875 404.2629699707031,395.56951904296875" style="fill:#d4d4d4;stroke:#d4d4d4;"></polygon><polygon points="344.4726104736328,356.0740661621094 357.2687072753906,395.01629638671875 399.5272521972656,356.3452606201172" style="fill:#cdcdcd;stroke:#cdcdcd;"></polygon><polygon points="393.4839324951172,312.236572265625 344.4726104736328,356.0740661621094 399.5272521972656,356.3452606201172" style="fill:#dedede;stroke:#dedede;"></polygon><polygon points="360.51707458496094,311.05924224853516 344.4726104736328,356.0740661621094 393.4839324951172,312.236572265625" style="fill:#d3d3d3;stroke:#d3d3d3;"></polygon><polygon points="387.2819061279297,265.84276580810547 360.51707458496094,311.05924224853516 393.4839324951172,312.236572265625" style="fill:#d0d0d0;stroke:#d0d0d0;"></polygon><polygon points="344.1687545776367,259.846622467041 360.51707458496094,311.05924224853516 387.2819061279297,265.84276580810547" style="fill:#cecece;stroke:#cecece;"></polygon><polygon points="388.78515625,217.8840172290802 344.1687545776367,259.846622467041 387.2819061279297,265.84276580810547" style="fill:#cecece;stroke:#cecece;"></polygon><polygon points="353.2192840576172,217.6500358581543 344.1687545776367,259.846622467041 388.78515625,217.8840172290802" style="fill:#dddddd;stroke:#dddddd;"></polygon><polygon points="395.2109375,180.11519241333008 353.2192840576172,217.6500358581543 388.78515625,217.8840172290802" style="fill:#dedede;stroke:#dedede;"></polygon><polygon points="343.5401916503906,176.9640884399414 353.2192840576172,217.6500358581543 395.2109375,180.11519241333008" style="fill:#eaeaea;stroke:#eaeaea;"></polygon><polygon points="389.2039031982422,135.85739135742188 343.5401916503906,176.9640884399414 395.2109375,180.11519241333008" style="fill:#dddddd;stroke:#dddddd;"></polygon><polygon points="346.31233978271484,131.64720153808594 343.5401916503906,176.9640884399414 389.2039031982422,135.85739135742188" style="fill:#ececec;stroke:#ececec;"></polygon><polygon points="402.33978271484375,85.31069946289062 346.31233978271484,131.64720153808594 389.2039031982422,135.85739135742188" style="fill:#f5f5f5;stroke:#f5f5f5;"></polygon><polygon points="344.25677490234375,86.91366577148438 346.31233978271484,131.64720153808594 402.33978271484375,85.31069946289062" style="fill:#fbfbfb;stroke:#fbfbfb;"></polygon><polygon points="389.1581726074219,46.857879638671875 344.25677490234375,86.91366577148438 402.33978271484375,85.31069946289062" style="fill:#fdfdfd;stroke:#fdfdfd;"></polygon><polygon points="343.4280090332031,48.2640380859375 344.25677490234375,86.91366577148438 389.1581726074219,46.857879638671875" style="fill:#fbfbfb;stroke:#fbfbfb;"></polygon><polygon points="388.51612854003906,-2.186920166015625 343.4280090332031,48.2640380859375 389.1581726074219,46.857879638671875" style="fill:#f5f5f5;stroke:#f5f5f5;"></polygon><polygon points="360.7388458251953,2.8987579345703125 343.4280090332031,48.2640380859375 388.51612854003906,-2.186920166015625" style="fill:#fbfbfb;stroke:#fbfbfb;"></polygon><polygon points="357.2687072753906,395.01629638671875 302.83560943603516,436.5238952636719 357.7254333496094,435.9350128173828" style="fill:#cfcfcf;stroke:#cfcfcf;"></polygon><polygon points="313.78392028808594,392.0009002685547 302.83560943603516,436.5238952636719 357.2687072753906,395.01629638671875" style="fill:#d7d7d7;stroke:#d7d7d7;"></polygon><polygon points="344.4726104736328,356.0740661621094 313.78392028808594,392.0009002685547 357.2687072753906,395.01629638671875" style="fill:#cecece;stroke:#cecece;"></polygon><polygon points="305.4381790161133,355.8998107910156 313.78392028808594,392.0009002685547 344.4726104736328,356.0740661621094" style="fill:#d8d8d8;stroke:#d8d8d8;"></polygon><polygon points="360.51707458496094,311.05924224853516 305.4381790161133,355.8998107910156 344.4726104736328,356.0740661621094" style="fill:#f0f0f0;stroke:#f0f0f0;"></polygon><polygon points="314.61190032958984,304.18436431884766 305.4381790161133,355.8998107910156 360.51707458496094,311.05924224853516" style="fill:#bfbfbf;stroke:#bfbfbf;"></polygon><polygon points="344.1687545776367,259.846622467041 314.61190032958984,304.18436431884766 360.51707458496094,311.05924224853516" style="fill:#d0d0d0;stroke:#d0d0d0;"></polygon><polygon points="304.4735565185547,259.7838668823242 314.61190032958984,304.18436431884766 344.1687545776367,259.846622467041" style="fill:#e3e3e3;stroke:#e3e3e3;"></polygon><polygon points="353.2192840576172,217.6500358581543 304.4735565185547,259.7838668823242 344.1687545776367,259.846622467041" style="fill:#e8e8e8;stroke:#e8e8e8;"></polygon><polygon points="300.8514862060547,217.6943118572235 304.4735565185547,259.7838668823242 353.2192840576172,217.6500358581543" style="fill:#f7f7f7;stroke:#f7f7f7;"></polygon><polygon points="343.5401916503906,176.9640884399414 300.8514862060547,217.6943118572235 353.2192840576172,217.6500358581543" style="fill:#f3f3f3;stroke:#f3f3f3;"></polygon><polygon points="315.88045501708984,178.3279800415039 300.8514862060547,217.6943118572235 343.5401916503906,176.9640884399414" style="fill:#ffffff;stroke:#ffffff;"></polygon><polygon points="346.31233978271484,131.64720153808594 315.88045501708984,178.3279800415039 343.5401916503906,176.9640884399414" style="fill:#f9f9f9;stroke:#f9f9f9;"></polygon><polygon points="315.9770278930664,128.86378479003906 315.88045501708984,178.3279800415039 346.31233978271484,131.64720153808594" style="fill:#f3f3f3;stroke:#f3f3f3;"></polygon><polygon points="344.25677490234375,86.91366577148438 315.9770278930664,128.86378479003906 346.31233978271484,131.64720153808594" style="fill:#ffffff;stroke:#ffffff;"></polygon><polygon points="299.2001266479492,86.68504333496094 315.9770278930664,128.86378479003906 344.25677490234375,86.91366577148438" style="fill:#ffffff;stroke:#ffffff;"></polygon><polygon points="343.4280090332031,48.2640380859375 299.2001266479492,86.68504333496094 344.25677490234375,86.91366577148438" style="fill:#ffffff;stroke:#ffffff;"></polygon><polygon points="309.2802734375,39.90478515625 299.2001266479492,86.68504333496094 343.4280090332031,48.2640380859375" style="fill:#ffffff;stroke:#ffffff;"></polygon><polygon points="360.7388458251953,2.8987579345703125 309.2802734375,39.90478515625 343.4280090332031,48.2640380859375" style="fill:#ffffff;stroke:#ffffff;"></polygon><polygon points="311.59407806396484,1.018646240234375 309.2802734375,39.90478515625 360.7388458251953,2.8987579345703125" style="fill:#ffffff;stroke:#ffffff;"></polygon><polygon points="313.78392028808594,392.0009002685547 256.96929931640625,436.4031677246094 302.83560943603516,436.5238952636719" style="fill:#cfcfcf;stroke:#cfcfcf;"></polygon><polygon points="270.27734756469727,391.6284942626953 256.96929931640625,436.4031677246094 313.78392028808594,392.0009002685547" style="fill:#bbbbbb;stroke:#bbbbbb;"></polygon><polygon points="305.4381790161133,355.8998107910156 270.27734756469727,391.6284942626953 313.78392028808594,392.0009002685547" style="fill:#d7d7d7;stroke:#d7d7d7;"></polygon><polygon points="272.1971435546875,355.18385314941406 270.27734756469727,391.6284942626953 305.4381790161133,355.8998107910156" style="fill:#c4c4c4;stroke:#c4c4c4;"></polygon><polygon points="314.61190032958984,304.18436431884766 272.1971435546875,355.18385314941406 305.4381790161133,355.8998107910156" style="fill:#b5b5b5;stroke:#b5b5b5;"></polygon><polygon points="263.43828201293945,303.6002502441406 272.1971435546875,355.18385314941406 314.61190032958984,304.18436431884766" style="fill:#dadada;stroke:#dadada;"></polygon><polygon points="304.4735565185547,259.7838668823242 263.43828201293945,303.6002502441406 314.61190032958984,304.18436431884766" style="fill:#e2e2e2;stroke:#e2e2e2;"></polygon><polygon points="272.77046966552734,268.3848762512207 263.43828201293945,303.6002502441406 304.4735565185547,259.7838668823242" style="fill:#f1f1f1;stroke:#f1f1f1;"></polygon><polygon points="300.8514862060547,217.6943118572235 272.77046966552734,268.3848762512207 304.4735565185547,259.7838668823242" style="fill:#f6f6f6;stroke:#f6f6f6;"></polygon><polygon points="266.00146102905273,219.97701574489474 272.77046966552734,268.3848762512207 300.8514862060547,217.6943118572235" style="fill:#ececec;stroke:#ececec;"></polygon><polygon points="315.88045501708984,178.3279800415039 266.00146102905273,219.97701574489474 300.8514862060547,217.6943118572235" style="fill:#f2f2f2;stroke:#f2f2f2;"></polygon><polygon points="256.77721405029297,175.9820785522461 266.00146102905273,219.97701574489474 315.88045501708984,178.3279800415039" style="fill:#fcfcfc;stroke:#fcfcfc;"></polygon><polygon points="315.9770278930664,128.86378479003906 256.77721405029297,175.9820785522461 315.88045501708984,178.3279800415039" style="fill:#f0f0f0;stroke:#f0f0f0;"></polygon><polygon points="266.9786605834961,130.2159881591797 256.77721405029297,175.9820785522461 315.9770278930664,128.86378479003906" style="fill:#f4f4f4;stroke:#f4f4f4;"></polygon><polygon points="299.2001266479492,86.68504333496094 266.9786605834961,130.2159881591797 315.9770278930664,128.86378479003906" style="fill:#ffffff;stroke:#ffffff;"></polygon><polygon points="255.8668556213379,83.73922729492188 266.9786605834961,130.2159881591797 299.2001266479492,86.68504333496094" style="fill:#ffffff;stroke:#ffffff;"></polygon><polygon points="309.2802734375,39.90478515625 255.8668556213379,83.73922729492188 299.2001266479492,86.68504333496094" style="fill:#ffffff;stroke:#ffffff;"></polygon><polygon points="256.84397888183594,39.77607727050781 255.8668556213379,83.73922729492188 309.2802734375,39.90478515625" style="fill:#ffffff;stroke:#ffffff;"></polygon><polygon points="311.59407806396484,1.018646240234375 256.84397888183594,39.77607727050781 309.2802734375,39.90478515625" style="fill:#ffffff;stroke:#ffffff;"></polygon><polygon points="256.1526336669922,4.2548370361328125 256.84397888183594,39.77607727050781 311.59407806396484,1.018646240234375" style="fill:#ffffff;stroke:#ffffff;"></polygon><polygon points="270.27734756469727,391.6284942626953 227.19967603683472,437.33160400390625 256.96929931640625,436.4031677246094" style="fill:#bababa;stroke:#bababa;"></polygon><polygon points="225.276451587677,392.8605651855469 227.19967603683472,437.33160400390625 270.27734756469727,391.6284942626953" style="fill:#cacaca;stroke:#cacaca;"></polygon><polygon points="272.1971435546875,355.18385314941406 225.276451587677,392.8605651855469 270.27734756469727,391.6284942626953" style="fill:#cacaca;stroke:#cacaca;"></polygon><polygon points="227.4220371246338,356.3907470703125 225.276451587677,392.8605651855469 272.1971435546875,355.18385314941406" style="fill:#cfcfcf;stroke:#cfcfcf;"></polygon><polygon points="263.43828201293945,303.6002502441406 227.4220371246338,356.3907470703125 272.1971435546875,355.18385314941406" style="fill:#d8d8d8;stroke:#d8d8d8;"></polygon><polygon points="216.5169403553009,307.2582092285156 227.4220371246338,356.3907470703125 263.43828201293945,303.6002502441406" style="fill:#d5d5d5;stroke:#d5d5d5;"></polygon><polygon points="272.77046966552734,268.3848762512207 216.5169403553009,307.2582092285156 263.43828201293945,303.6002502441406" style="fill:#e8e8e8;stroke:#e8e8e8;"></polygon><polygon points="228.21661186218262,265.43468856811523 216.5169403553009,307.2582092285156 272.77046966552734,268.3848762512207" style="fill:#dbdbdb;stroke:#dbdbdb;"></polygon><polygon points="266.00146102905273,219.97701574489474 228.21661186218262,265.43468856811523 272.77046966552734,268.3848762512207" style="fill:#e9e9e9;stroke:#e9e9e9;"></polygon><polygon points="216.20355939865112,224.3554458618164 228.21661186218262,265.43468856811523 266.00146102905273,219.97701574489474" style="fill:#fcfcfc;stroke:#fcfcfc;"></polygon><polygon points="256.77721405029297,175.9820785522461 216.20355939865112,224.3554458618164 266.00146102905273,219.97701574489474" style="fill:#f9f9f9;stroke:#f9f9f9;"></polygon><polygon points="223.90089797973633,177.83944702148438 216.20355939865112,224.3554458618164 256.77721405029297,175.9820785522461" style="fill:#e0e0e0;stroke:#e0e0e0;"></polygon><polygon points="266.9786605834961,130.2159881591797 223.90089797973633,177.83944702148438 256.77721405029297,175.9820785522461" style="fill:#e4e4e4;stroke:#e4e4e4;"></polygon><polygon points="227.4438681602478,136.39044952392578 223.90089797973633,177.83944702148438 266.9786605834961,130.2159881591797" style="fill:#ffffff;stroke:#ffffff;"></polygon><polygon points="255.8668556213379,83.73922729492188 227.4438681602478,136.39044952392578 266.9786605834961,130.2159881591797" style="fill:#ffffff;stroke:#ffffff;"></polygon><polygon points="218.3606870174408,83.81202697753906 227.4438681602478,136.39044952392578 255.8668556213379,83.73922729492188" style="fill:#ffffff;stroke:#ffffff;"></polygon><polygon points="256.84397888183594,39.77607727050781 218.3606870174408,83.81202697753906 255.8668556213379,83.73922729492188" style="fill:#ffffff;stroke:#ffffff;"></polygon><polygon points="215.72093296051025,42.16587829589844 218.3606870174408,83.81202697753906 256.84397888183594,39.77607727050781" style="fill:#ffffff;stroke:#ffffff;"></polygon><polygon points="256.1526336669922,4.2548370361328125 215.72093296051025,42.16587829589844 256.84397888183594,39.77607727050781" style="fill:#ffffff;stroke:#ffffff;"></polygon><polygon points="225.4513292312622,0.12420654296875 215.72093296051025,42.16587829589844 256.1526336669922,4.2548370361328125" style="fill:#ffffff;stroke:#ffffff;"></polygon><polygon points="225.276451587677,392.8605651855469 167.7860107421875,435.72645568847656 227.19967603683472,437.33160400390625" style="fill:#c8c8c8;stroke:#c8c8c8;"></polygon><polygon points="167.3132209777832,400.3085479736328 167.7860107421875,435.72645568847656 225.276451587677,392.8605651855469" style="fill:#cccccc;stroke:#cccccc;"></polygon><polygon points="227.4220371246338,356.3907470703125 167.3132209777832,400.3085479736328 225.276451587677,392.8605651855469" style="fill:#cecece;stroke:#cecece;"></polygon><polygon points="175.6690673828125,356.3933410644531 167.3132209777832,400.3085479736328 227.4220371246338,356.3907470703125" style="fill:#d1d1d1;stroke:#d1d1d1;"></polygon><polygon points="216.5169403553009,307.2582092285156 175.6690673828125,356.3933410644531 227.4220371246338,356.3907470703125" style="fill:#d2d2d2;stroke:#d2d2d2;"></polygon><polygon points="178.52972793579102,303.69358825683594 175.6690673828125,356.3933410644531 216.5169403553009,307.2582092285156" style="fill:#e5e5e5;stroke:#e5e5e5;"></polygon><polygon points="228.21661186218262,265.43468856811523 178.52972793579102,303.69358825683594 216.5169403553009,307.2582092285156" style="fill:#e3e3e3;stroke:#e3e3e3;"></polygon><polygon points="183.5657844543457,267.31153106689453 178.52972793579102,303.69358825683594 228.21661186218262,265.43468856811523" style="fill:#e0e0e0;stroke:#e0e0e0;"></polygon><polygon points="216.20355939865112,224.3554458618164 183.5657844543457,267.31153106689453 228.21661186218262,265.43468856811523" style="fill:#f2f2f2;stroke:#f2f2f2;"></polygon><polygon points="184.79003524780273,223.73852729797363 183.5657844543457,267.31153106689453 216.20355939865112,224.3554458618164" style="fill:#e3e3e3;stroke:#e3e3e3;"></polygon><polygon points="223.90089797973633,177.83944702148438 184.79003524780273,223.73852729797363 216.20355939865112,224.3554458618164" style="fill:#e1e1e1;stroke:#e1e1e1;"></polygon><polygon points="167.20183181762695,174.1947021484375 184.79003524780273,223.73852729797363 223.90089797973633,177.83944702148438" style="fill:#f8f8f8;stroke:#f8f8f8;"></polygon><polygon points="227.4438681602478,136.39044952392578 167.20183181762695,174.1947021484375 223.90089797973633,177.83944702148438" style="fill:#ffffff;stroke:#ffffff;"></polygon><polygon points="184.04191970825195,129.80160522460938 167.20183181762695,174.1947021484375 227.4438681602478,136.39044952392578" style="fill:#ffffff;stroke:#ffffff;"></polygon><polygon points="218.3606870174408,83.81202697753906 184.04191970825195,129.80160522460938 227.4438681602478,136.39044952392578" style="fill:#ffffff;stroke:#ffffff;"></polygon><polygon points="184.20182418823242,91.98640441894531 184.04191970825195,129.80160522460938 218.3606870174408,83.81202697753906" style="fill:#ffffff;stroke:#ffffff;"></polygon><polygon points="215.72093296051025,42.16587829589844 184.20182418823242,91.98640441894531 218.3606870174408,83.81202697753906" style="fill:#ffffff;stroke:#ffffff;"></polygon><polygon points="180.60559844970703,40.52253723144531 184.20182418823242,91.98640441894531 215.72093296051025,42.16587829589844" style="fill:#ffffff;stroke:#ffffff;"></polygon><polygon points="225.4513292312622,0.12420654296875 180.60559844970703,40.52253723144531 215.72093296051025,42.16587829589844" style="fill:#ffffff;stroke:#ffffff;"></polygon><polygon points="171.92309951782227,4.398223876953125 180.60559844970703,40.52253723144531 225.4513292312622,0.12420654296875" style="fill:#ffffff;stroke:#ffffff;"></polygon><polygon points="167.3132209777832,400.3085479736328 124.41033172607422,436.5081024169922 167.7860107421875,435.72645568847656" style="fill:#c9c9c9;stroke:#c9c9c9;"></polygon><polygon points="126.4336929321289,391.9993133544922 124.41033172607422,436.5081024169922 167.3132209777832,400.3085479736328" style="fill:#cbcbcb;stroke:#cbcbcb;"></polygon><polygon points="175.6690673828125,356.3933410644531 126.4336929321289,391.9993133544922 167.3132209777832,400.3085479736328" style="fill:#d0d0d0;stroke:#d0d0d0;"></polygon><polygon points="123.22052764892578,354.02716064453125 126.4336929321289,391.9993133544922 175.6690673828125,356.3933410644531" style="fill:#d7d7d7;stroke:#d7d7d7;"></polygon><polygon points="178.52972793579102,303.69358825683594 123.22052764892578,354.02716064453125 175.6690673828125,356.3933410644531" style="fill:#e3e3e3;stroke:#e3e3e3;"></polygon><polygon points="137.11122131347656,307.9816436767578 123.22052764892578,354.02716064453125 178.52972793579102,303.69358825683594" style="fill:#cfcfcf;stroke:#cfcfcf;"></polygon><polygon points="183.5657844543457,267.31153106689453 137.11122131347656,307.9816436767578 178.52972793579102,303.69358825683594" style="fill:#dddddd;stroke:#dddddd;"></polygon><polygon points="125.44180297851562,260.1843070983887 137.11122131347656,307.9816436767578 183.5657844543457,267.31153106689453" style="fill:#dedede;stroke:#dedede;"></polygon><polygon points="184.79003524780273,223.73852729797363 125.44180297851562,260.1843070983887 183.5657844543457,267.31153106689453" style="fill:#e0e0e0;stroke:#e0e0e0;"></polygon><polygon points="134.28314971923828,223.89803457260132 125.44180297851562,260.1843070983887 184.79003524780273,223.73852729797363" style="fill:#fdfdfd;stroke:#fdfdfd;"></polygon><polygon points="167.20183181762695,174.1947021484375 134.28314971923828,223.89803457260132 184.79003524780273,223.73852729797363" style="fill:#f7f7f7;stroke:#f7f7f7;"></polygon><polygon points="129.04595184326172,178.96760177612305 134.28314971923828,223.89803457260132 167.20183181762695,174.1947021484375" style="fill:#f1f1f1;stroke:#f1f1f1;"></polygon><polygon points="184.04191970825195,129.80160522460938 129.04595184326172,178.96760177612305 167.20183181762695,174.1947021484375" style="fill:#f9f9f9;stroke:#f9f9f9;"></polygon><polygon points="127.2867202758789,136.332275390625 129.04595184326172,178.96760177612305 184.04191970825195,129.80160522460938" style="fill:#ffffff;stroke:#ffffff;"></polygon><polygon points="184.20182418823242,91.98640441894531 127.2867202758789,136.332275390625 184.04191970825195,129.80160522460938" style="fill:#ffffff;stroke:#ffffff;"></polygon><polygon points="124.52908325195312,85.51127624511719 127.2867202758789,136.332275390625 184.20182418823242,91.98640441894531" style="fill:#ffffff;stroke:#ffffff;"></polygon><polygon points="180.60559844970703,40.52253723144531 124.52908325195312,85.51127624511719 184.20182418823242,91.98640441894531" style="fill:#ffffff;stroke:#ffffff;"></polygon><polygon points="123.71743774414062,44.705169677734375 124.52908325195312,85.51127624511719 180.60559844970703,40.52253723144531" style="fill:#ffffff;stroke:#ffffff;"></polygon><polygon points="171.92309951782227,4.398223876953125 123.71743774414062,44.705169677734375 180.60559844970703,40.52253723144531" style="fill:#ffffff;stroke:#ffffff;"></polygon><polygon points="134.0134048461914,3.6724700927734375 123.71743774414062,44.705169677734375 171.92309951782227,4.398223876953125" style="fill:#ffffff;stroke:#ffffff;"></polygon><polygon points="126.4336929321289,391.9993133544922 96.79093933105469,444.39923095703125 124.41033172607422,436.5081024169922" style="fill:#c8c8c8;stroke:#c8c8c8;"></polygon><polygon points="90.059814453125,397.8132019042969 96.79093933105469,444.39923095703125 126.4336929321289,391.9993133544922" style="fill:#c7c7c7;stroke:#c7c7c7;"></polygon><polygon points="123.22052764892578,354.02716064453125 90.059814453125,397.8132019042969 126.4336929321289,391.9993133544922" style="fill:#d4d4d4;stroke:#d4d4d4;"></polygon><polygon points="94.28060913085938,347.6001434326172 90.059814453125,397.8132019042969 123.22052764892578,354.02716064453125" style="fill:#d0d0d0;stroke:#d0d0d0;"></polygon><polygon points="137.11122131347656,307.9816436767578 94.28060913085938,347.6001434326172 123.22052764892578,354.02716064453125" style="fill:#cdcdcd;stroke:#cdcdcd;"></polygon><polygon points="96.16703033447266,303.70008087158203 94.28060913085938,347.6001434326172 137.11122131347656,307.9816436767578" style="fill:#d9d9d9;stroke:#d9d9d9;"></polygon><polygon points="125.44180297851562,260.1843070983887 96.16703033447266,303.70008087158203 137.11122131347656,307.9816436767578" style="fill:#c9c9c9;stroke:#c9c9c9;"></polygon><polygon points="85.20657348632812,262.4114112854004 96.16703033447266,303.70008087158203 125.44180297851562,260.1843070983887" style="fill:#cccccc;stroke:#cccccc;"></polygon><polygon points="134.28314971923828,223.89803457260132 85.20657348632812,262.4114112854004 125.44180297851562,260.1843070983887" style="fill:#f1f1f1;stroke:#f1f1f1;"></polygon><polygon points="84.49122619628906,222.39996528625488 85.20657348632812,262.4114112854004 134.28314971923828,223.89803457260132" style="fill:#d7d7d7;stroke:#d7d7d7;"></polygon><polygon points="129.04595184326172,178.96760177612305 84.49122619628906,222.39996528625488 134.28314971923828,223.89803457260132" style="fill:#e7e7e7;stroke:#e7e7e7;"></polygon><polygon points="81.97119140625,172.07741928100586 84.49122619628906,222.39996528625488 129.04595184326172,178.96760177612305" style="fill:#f2f2f2;stroke:#f2f2f2;"></polygon><polygon points="127.2867202758789,136.332275390625 81.97119140625,172.07741928100586 129.04595184326172,178.96760177612305" style="fill:#eeeeee;stroke:#eeeeee;"></polygon><polygon points="79.64041137695312,133.52745056152344 81.97119140625,172.07741928100586 127.2867202758789,136.332275390625" style="fill:#eeeeee;stroke:#eeeeee;"></polygon><polygon points="124.52908325195312,85.51127624511719 79.64041137695312,133.52745056152344 127.2867202758789,136.332275390625" style="fill:#ffffff;stroke:#ffffff;"></polygon><polygon points="93.45215606689453,88.76589965820312 79.64041137695312,133.52745056152344 124.52908325195312,85.51127624511719" style="fill:#ffffff;stroke:#ffffff;"></polygon><polygon points="123.71743774414062,44.705169677734375 93.45215606689453,88.76589965820312 124.52908325195312,85.51127624511719" style="fill:#ffffff;stroke:#ffffff;"></polygon><polygon points="84.45994567871094,48.16111755371094 93.45215606689453,88.76589965820312 123.71743774414062,44.705169677734375" style="fill:#ffffff;stroke:#ffffff;"></polygon><polygon points="134.0134048461914,3.6724700927734375 84.45994567871094,48.16111755371094 123.71743774414062,44.705169677734375" style="fill:#ffffff;stroke:#ffffff;"></polygon><polygon points="80.44786071777344,-0.065093994140625 84.45994567871094,48.16111755371094 134.0134048461914,3.6724700927734375" style="fill:#ffffff;stroke:#ffffff;"></polygon><polygon points="90.059814453125,397.8132019042969 52.75727844238281,443.0244445800781 96.79093933105469,444.39923095703125" style="fill:#d1d1d1;stroke:#d1d1d1;"></polygon><polygon points="52.00328063964844,397.79412841796875 52.75727844238281,443.0244445800781 90.059814453125,397.8132019042969" style="fill:#d5d5d5;stroke:#d5d5d5;"></polygon><polygon points="94.28060913085938,347.6001434326172 52.00328063964844,397.79412841796875 90.059814453125,397.8132019042969" style="fill:#d0d0d0;stroke:#d0d0d0;"></polygon><polygon points="48.08360290527344,356.0447692871094 52.00328063964844,397.79412841796875 94.28060913085938,347.6001434326172" style="fill:#d3d3d3;stroke:#d3d3d3;"></polygon><polygon points="96.16703033447266,303.70008087158203 48.08360290527344,356.0447692871094 94.28060913085938,347.6001434326172" style="fill:#dddddd;stroke:#dddddd;"></polygon><polygon points="36.4324951171875,303.66815185546875 48.08360290527344,356.0447692871094 96.16703033447266,303.70008087158203" style="fill:#dfdfdf;stroke:#dfdfdf;"></polygon><polygon points="85.20657348632812,262.4114112854004 36.4324951171875,303.66815185546875 96.16703033447266,303.70008087158203" style="fill:#dbdbdb;stroke:#dbdbdb;"></polygon><polygon points="35.37715148925781,264.273250579834 36.4324951171875,303.66815185546875 85.20657348632812,262.4114112854004" style="fill:#d1d1d1;stroke:#d1d1d1;"></polygon><polygon points="84.49122619628906,222.39996528625488 35.37715148925781,264.273250579834 85.20657348632812,262.4114112854004" style="fill:#d5d5d5;stroke:#d5d5d5;"></polygon><polygon points="39.21925354003906,218.93435883522034 35.37715148925781,264.273250579834 84.49122619628906,222.39996528625488" style="fill:#dfdfdf;stroke:#dfdfdf;"></polygon><polygon points="81.97119140625,172.07741928100586 39.21925354003906,218.93435883522034 84.49122619628906,222.39996528625488" style="fill:#f0f0f0;stroke:#f0f0f0;"></polygon><polygon points="38.4652099609375,172.4273681640625 39.21925354003906,218.93435883522034 81.97119140625,172.07741928100586" style="fill:#f1f1f1;stroke:#f1f1f1;"></polygon><polygon points="79.64041137695312,133.52745056152344 38.4652099609375,172.4273681640625 81.97119140625,172.07741928100586" style="fill:#fbfbfb;stroke:#fbfbfb;"></polygon><polygon points="38.873626708984375,127.61809539794922 38.4652099609375,172.4273681640625 79.64041137695312,133.52745056152344" style="fill:#f9f9f9;stroke:#f9f9f9;"></polygon><polygon points="93.45215606689453,88.76589965820312 38.873626708984375,127.61809539794922 79.64041137695312,133.52745056152344" style="fill:#f0f0f0;stroke:#f0f0f0;"></polygon><polygon points="52.70521545410156,92.35291290283203 38.873626708984375,127.61809539794922 93.45215606689453,88.76589965820312" style="fill:#f1f1f1;stroke:#f1f1f1;"></polygon><polygon points="84.45994567871094,48.16111755371094 52.70521545410156,92.35291290283203 93.45215606689453,88.76589965820312" style="fill:#ffffff;stroke:#ffffff;"></polygon><polygon points="35.656280517578125,48.352203369140625 52.70521545410156,92.35291290283203 84.45994567871094,48.16111755371094" style="fill:#ffffff;stroke:#ffffff;"></polygon><polygon points="80.44786071777344,-0.065093994140625 35.656280517578125,48.352203369140625 84.45994567871094,48.16111755371094" style="fill:#ffffff;stroke:#ffffff;"></polygon><polygon points="52.56648254394531,0.1580352783203125 35.656280517578125,48.352203369140625 80.44786071777344,-0.065093994140625" style="fill:#e4e4e4;stroke:#e4e4e4;"></polygon><polygon points="52.00328063964844,397.79412841796875 -5.492279052734375,437.4503936767578 52.75727844238281,443.0244445800781" style="fill:#cacaca;stroke:#cacaca;"></polygon><polygon points="1.935760498046875,393.5353698730469 -5.492279052734375,437.4503936767578 52.00328063964844,397.79412841796875" style="fill:#cecece;stroke:#cecece;"></polygon><polygon points="48.08360290527344,356.0447692871094 1.935760498046875,393.5353698730469 52.00328063964844,397.79412841796875" style="fill:#c6c6c6;stroke:#c6c6c6;"></polygon><polygon points="-4.9515533447265625,347.7257995605469 1.935760498046875,393.5353698730469 48.08360290527344,356.0447692871094" style="fill:#bcbcbc;stroke:#bcbcbc;"></polygon><polygon points="36.4324951171875,303.66815185546875 -4.9515533447265625,347.7257995605469 48.08360290527344,356.0447692871094" style="fill:#e0e0e0;stroke:#e0e0e0;"></polygon><polygon points="-3.77716064453125,305.2561340332031 -4.9515533447265625,347.7257995605469 36.4324951171875,303.66815185546875" style="fill:#e2e2e2;stroke:#e2e2e2;"></polygon><polygon points="35.37715148925781,264.273250579834 -3.77716064453125,305.2561340332031 36.4324951171875,303.66815185546875" style="fill:#c6c6c6;stroke:#c6c6c6;"></polygon><polygon points="-4.645416259765625,265.13887786865234 -3.77716064453125,305.2561340332031 35.37715148925781,264.273250579834" style="fill:#cbcbcb;stroke:#cbcbcb;"></polygon><polygon points="39.21925354003906,218.93435883522034 -4.645416259765625,265.13887786865234 35.37715148925781,264.273250579834" style="fill:#cfcfcf;stroke:#cfcfcf;"></polygon><polygon points="-4.1119842529296875,223.08046865463257 -4.645416259765625,265.13887786865234 39.21925354003906,218.93435883522034" style="fill:#cecece;stroke:#cecece;"></polygon><polygon points="38.4652099609375,172.4273681640625 -4.1119842529296875,223.08046865463257 39.21925354003906,218.93435883522034" style="fill:#dedede;stroke:#dedede;"></polygon><polygon points="8.274642944335938,171.60040283203125 -4.1119842529296875,223.08046865463257 38.4652099609375,172.4273681640625" style="fill:#d9d9d9;stroke:#d9d9d9;"></polygon><polygon points="38.873626708984375,127.61809539794922 8.274642944335938,171.60040283203125 38.4652099609375,172.4273681640625" style="fill:#e0e0e0;stroke:#e0e0e0;"></polygon><polygon points="-0.9798431396484375,136.19615936279297 8.274642944335938,171.60040283203125 38.873626708984375,127.61809539794922" style="fill:#e7e7e7;stroke:#e7e7e7;"></polygon><polygon points="52.70521545410156,92.35291290283203 -0.9798431396484375,136.19615936279297 38.873626708984375,127.61809539794922" style="fill:#e5e5e5;stroke:#e5e5e5;"></polygon><polygon points="8.70294189453125,84.73603820800781 -0.9798431396484375,136.19615936279297 52.70521545410156,92.35291290283203" style="fill:#dddddd;stroke:#dddddd;"></polygon><polygon points="35.656280517578125,48.352203369140625 8.70294189453125,84.73603820800781 52.70521545410156,92.35291290283203" style="fill:#dddddd;stroke:#dddddd;"></polygon><polygon points="5.7998504638671875,39.610107421875 8.70294189453125,84.73603820800781 35.656280517578125,48.352203369140625" style="fill:#e8e8e8;stroke:#e8e8e8;"></polygon><polygon points="52.56648254394531,0.1580352783203125 5.7998504638671875,39.610107421875 35.656280517578125,48.352203369140625" style="fill:#fdfdfd;stroke:#fdfdfd;"></polygon><polygon points="7.1176605224609375,1.0861358642578125 5.7998504638671875,39.610107421875 52.56648254394531,0.1580352783203125" style="fill:#fafafa;stroke:#fafafa;"></polygon></g></g>

      <g id="screen1" style="opacity: 0;">
        <text id="text1" x="200" y="80" width="400" class="base-font" font-weight="100" font-size="40" fill="#686868" text-anchor="middle">
          Screens
        </text>

        <text id="text2" x="200" y="350" width="400" class="base-font" font-weight="100" font-size="40" fill="#686868" text-anchor="middle">
          SVG
        </text><g transform="matrix(0.1,0,0,0.1,200,200)" style="opacity: 0;"><rect x="-46" y="-66" width="92" height="132" fill="#696969" style=""></rect><rect x="-38" y="-50" width="76" height="100" fill="#09ae8a" style=""></rect><g transform="matrix(0.01,0,0,0.01,0,50)" style="opacity: 0;"><polygon points="-103.324,0 -135.324,32 136.676,32 104.676,0 " fill="#818181" style=""></polygon><polygon points="127.774,40 -128.226,40 -136.226,32 135.774,32 " fill="#676767" style=""></polygon></g></g>
      </g>

      <text id="text3" class="base-font" font-weight="100" font-size="50" fill="white" text-anchor="middle" opacity="0" style="opacity: 0;">
        <tspan x="200" y="180">Make SVG</tspan>
        <tspan x="200" y="250">a Snap!</tspan>
      </text>

      <g id="heart" transform="matrix(4,0,0,4,200,200)" clip-path="url('#Sjf7azdew6i')">
        <path id="heart-shape" fill="#ffffff" d="M14.803-28.95c-5.879,0-11.119,2.418-14.547,6.192c-3.428-3.774-8.668-6.192-14.547-6.192c-10.329,0-23.453,4.75-23.453,23.75s38,35.414,38,35.414s38-16.414,38-35.414S25.133-28.95,14.803-28.95" style=""></path>
      </g>

      <g id="burst" transform="translate(200, 200)" opacity="0" mask="url('#Sjf7azdew6h')" style="opacity: 0;">
        <polygon fill="#FFFFFF" points="0.451,0.063 149.256,-214.94 227.256,-214.94   "></polygon>
        <polygon fill="#FFFFFF" points="0.451,0.063 49.256,-214.94 77.256,-214.94   "></polygon>
        <polygon fill="#FFFFFF" points="0.451,0.063 -78.328,-214.94 -50.744,-212.273  "></polygon>
        <polygon fill="#FFFFFF" points="0.451,0.063 -113.661,209.06 -86.077,211.727   "></polygon>
        <polygon fill="#FFFFFF" points="0.451,0.063 -239.41,-214.94 -213.41,-135.607  "></polygon>
        <polygon fill="#FFFFFF" points="0.451,0.063 -239.41,-39 -213.41,10.334  "></polygon>
        <polygon fill="#FFFFFF" points="0.451,0.063 -239.41,101 -213.41,130.334   "></polygon>
        <polygon fill="#FFFFFF" points="0.451,0.063 215.697,21.383 241.697,50.717   "></polygon>
        <polygon fill="#FFFFFF" points="0.451,0.063 215.697,-88.617 241.697,-59.283   "></polygon>
        <polygon fill="#FFFFFF" points="0.451,0.063 208.691,137.42 207.805,194.354  "></polygon>
        <polygon fill="#FFFFFF" points="0.451,0.063 95.256,211.727 61.923,240.194   "></polygon>
      </g>

      <g id="resolve" opacity="0" style="opacity: 1;">

        <g id="replay-btn" transform="translate(345, 10)" _vimium-has-onclick-listener="">
          <rect fill="transparent" width="48" height="49.5"></rect>
          <path fill="#cccccc" d="M25.207,9.594V4.082L12.793,11.25l12.415,7.168v-5.792C31.57,13.466,36.5,18.912,36.5,25.5
            c0,7.168-5.832,13-13,13s-13-5.832-13-13c0-0.565,0.049-1.118,0.119-1.664l-2.922-0.717C7.58,23.898,7.5,24.689,7.5,25.5
            c0,8.822,7.178,16,16,16s16-7.178,16-16C39.5,17.255,33.229,10.449,25.207,9.594z"></path>
        </g>

        <text id="text4" font-weight="100" fill="#02225d" text-anchor="middle">
          <tspan x="200" y="100" class="base-font" font-size="46">
            with
          </tspan>
          <tspan x="200" y="160" class="snap-font" font-size="70">
            Snap.svg
          </tspan>
        </text>

        <g id="learn-btn" transform="translate(10, 350)">
          <path fill="#0B9B87" d="M147.129,37.886c0,3.156-2.558,5.714-5.714,5.714H5.714C2.558,43.6,0,41.042,0,37.886V8.175
            c0-3.156,2.558-5.714,5.714-5.714h135.702c3.156,0,5.714,2.558,5.714,5.714V37.886z"></path>
          <path fill="#10B29C" d="M147.129,35.425c0,3.156-2.558,5.714-5.714,5.714H5.714C2.558,41.139,0,38.581,0,35.425V5.714
            C0,2.558,2.558,0,5.714,0h135.702c3.156,0,5.714,2.558,5.714,5.714V35.425z"></path>
          <text x="10" y="30" fill="#FFFFFF" class="base-font" font-size="22.6026">
            Learn More
          </text>
        </g>

        <g id="snap-logo" transform="translate(200, 260)">
          <path id="snap-logo-bottom" fill="#192350" d="M39.197,39.001c0.061,0.246,0.121,0.492,0.182,0.738c-12.801,6.518-39.257,19.54-39.257,19.54
            s-31.604-14.952-38.953-18.708c6.5-3.264,13.001-6.529,19.502-9.792c6.328,3.094,12.655,6.187,18.985,9.281
            c6.617-3.305,13.03-6.509,19.442-9.712C25.797,33.232,32.497,36.116,39.197,39.001z" transform="matrix(1,0,0,1,0,0)" style="opacity: 1;"></path>
          <path id="snap-logo-right" fill="#03A69A" d="M39.331-54.922c-0.436-0.191-12.519,6.201-18.125,9.588c0,11.23,0,22.46,0,34.096
            C15.45-8.229-33.891,16.743-40.257,20.134c0.058,6.744,0.117,13.489,0.175,20.233c0.417,0.068,0.834,0.136,1.25,0.204
            c6.5-3.264,72.753-37.591,78.221-40.492C39.369-18.255,39.35-36.588,39.331-54.922z" transform="matrix(1,0,0,1,0,0)" style="opacity: 1;"></path>
          <path id="snap-logo-top" fill="#1E2A5A" d="M39.331-54.922c-5.606,3.387-12.519,6.201-18.126,9.588c-7.193-3.185-14.386-6.371-21.719-9.617
            c-7.287,3.21-14.6,6.432-21.914,9.654c-5.869-2.958-11.739-5.916-17.609-8.874c-0.039-0.239-0.078-0.478-0.117-0.717
            c12.766-6.485,25.531-12.969,38.297-19.454C11.437-68.06,26.037-61.204,39.331-54.922z" transform="matrix(1,0,0,1,0,0)" style="opacity: 1;"></path>
          <path id="snap-logo-left" fill="#133F68" d="M-22.676-11.256c0-3.489,0-6.949,0-10.408c0-7.878,0.198-15.755,0.346-23.633
            c-5.869-2.958-11.788-5.916-17.658-8.874c0.003,11.317-0.018,22.635-0.015,33.952c-0.034,6.737-0.081,13.474-0.114,20.21
            c5.781,2.841,52.704,26.952,59.219,30.356c6.7,2.884,13.397,5.769,20.096,8.654c0.029-6.258,0.134-12.516,0.163-18.773
            C33.044,16.882-15.406-7.438-22.676-11.256z" transform="matrix(1,0,0,1,0,0)" style="opacity: 1;"></path>
        </g>

        <g id="adobe-logo" transform="translate(350, 340)">
          <polygon fill="#787878" points="22.447,0 35.605,0 35.605,31.389   "></polygon>
          <polygon fill="#787878" points="13.172,0 0,0 0,31.389   "></polygon>
          <polygon fill="#787878" points="17.809,11.565 26.195,31.387 20.698,31.387 18.189,25.074 12.049,25.074   "></polygon>
          <g>
            <path fill="#787878" d="M38.294,0c0.843,0,1.515,0.678,1.515,1.524c0,0.859-0.672,1.538-1.521,1.538S36.75,2.383,36.75,1.524
              C36.75,0.677,37.438,0,38.288,0H38.294z M38.287,0.259c-0.675,0-1.217,0.567-1.217,1.27c0,0.707,0.542,1.271,1.224,1.271
              c0.672,0.007,1.212-0.566,1.212-1.271c0-0.702-0.54-1.27-1.212-1.27H38.287z M38.01,2.414H37.7V0.716
              c0.144-0.025,0.285-0.049,0.512-0.049c0.271,0,0.442,0.053,0.556,0.141c0.094,0.068,0.146,0.188,0.146,0.346
              c0,0.22-0.142,0.363-0.33,0.411v0.017c0.149,0.026,0.245,0.161,0.277,0.414c0.042,0.265,0.077,0.367,0.105,0.419h-0.311
              c-0.039-0.052-0.075-0.207-0.112-0.435c-0.035-0.201-0.146-0.286-0.356-0.286h-0.179v0.721L38.01,2.414L38.01,2.414z M38.01,1.458
              h0.185c0.221,0,0.406-0.074,0.406-0.271c0-0.15-0.107-0.285-0.392-0.285c-0.093,0-0.152,0-0.197,0.005v0.552L38.01,1.458
              L38.01,1.458z"></path>
          </g>
          <path fill="#787878" d="M4.782,44.511L4.366,42.05c-0.123-0.715-0.271-1.823-0.382-2.59H3.941c-0.124,0.771-0.294,1.914-0.42,2.596
            l-0.449,2.456L4.782,44.511L4.782,44.511z M2.847,46.12l-0.541,2.732h-2.01l2.501-11.373h2.457l2.271,11.373H5.507l-0.53-2.732
            H2.847z"></path>
          <path fill="#787878" d="M12.086,43.77c0-0.147,0-0.329-0.03-0.492c-0.078-0.561-0.381-1.067-0.863-1.067
            c-0.818,0-1.125,1.188-1.125,2.575c0,1.599,0.437,2.51,1.096,2.51c0.309,0,0.662-0.157,0.854-0.826
            c0.045-0.131,0.069-0.314,0.069-0.523L12.086,43.77L12.086,43.77z M14.148,37.174v9.318c0,0.743,0.037,1.647,0.067,2.359h-1.779
            l-0.119-0.947h-0.041c-0.298,0.583-0.948,1.086-1.721,1.086c-1.702,0-2.547-1.874-2.547-4.238c0-2.877,1.263-4.275,2.629-4.275
            c0.711,0,1.182,0.346,1.415,0.852h0.034v-4.152h2.062C14.148,37.177,14.148,37.174,14.148,37.174z"></path>
          <path fill="#787878" d="M18.428,47.415c0.782,0,0.982-1.474,0.982-2.697c0-1.159-0.2-2.67-1.018-2.67
            c-0.869,0-1.054,1.511-1.054,2.67c0,1.402,0.232,2.697,1.071,2.697H18.428z M18.387,48.989c-1.889,0-3.081-1.522-3.081-4.238
            c0-2.963,1.529-4.275,3.127-4.275c1.877,0,3.05,1.592,3.05,4.232c0,3.393-1.838,4.281-3.076,4.281H18.387z"></path>
          <path fill="#787878" d="M24.692,45.907c0,0.204,0.035,0.399,0.078,0.525c0.206,0.693,0.561,0.863,0.837,0.863
            c0.795,0,1.12-1.004,1.12-2.612c0-1.462-0.343-2.472-1.129-2.472c-0.392,0-0.72,0.423-0.832,0.877
            c-0.039,0.142-0.074,0.363-0.074,0.521C24.692,43.609,24.692,45.907,24.692,45.907z M22.634,37.174h2.058v4.293h0.032
            c0.406-0.634,0.945-0.994,1.731-0.994c1.55,0,2.331,1.758,2.331,4.049c0,2.91-1.168,4.467-2.67,4.467
            c-0.723,0-1.199-0.32-1.631-1.123h-0.042l-0.112,0.986h-1.765c0.03-0.688,0.069-1.616,0.069-2.359v-9.318L22.634,37.174
            L22.634,37.174z"></path>
          <path fill="#787878" d="M33.712,43.945c0.007-1.161-0.328-1.976-0.982-1.976c-0.749,0-1.064,1.094-1.088,1.976H33.712z
             M31.635,45.393c0.024,1.49,0.811,1.978,1.788,1.978c0.623,0,1.153-0.135,1.545-0.287l0.282,1.474
            c-0.548,0.238-1.393,0.383-2.201,0.383c-2.211,0-3.411-1.498-3.411-4.067c0-2.759,1.394-4.408,3.221-4.408
            c1.769,0,2.748,1.458,2.748,3.85c0,0.545-0.026,0.85-0.063,1.093L31.635,45.393z"></path>
        </g>
      </g>


    <desc>Created with Snap</desc><defs><polygon></polygon><mask id="Sjf7azdew6h"><g><rect x="-200" y="-200" width="400" height="400" style="" fill="#ffffff"></rect><circle cx="0" cy="0" r="30" transform="matrix(6,0,0,6,0,0)"></circle></g></mask><rect width="10" height="10" class="svg---mgr"></rect><clipPath id="Sjf7azdew6i"><path d="M0 0L6.123233995736766e-15 -50Z"></path></clipPath></defs></svg>
